# xmcd
#
# Track frame offsets:
#	150
#	24497
#	32356
#	47363
#	70467
#	103116
#	116833
#	129545
#	143694
#	166002
#
# Disc length: 2696
#
# Revision: 1
# Processed by: cddbd v1.5.1PL0 Copyright (c) Steve Scherf et al.
# Submitted via: CDex 1.50Beta5
# Normalized: r0:TDELIM( - )
#
DISCID=7e0a860a
DTITLE=Jazz - Jeep Solo Hay Uno
DYEAR=1900
DGENRE=Jazz
TTITLE0=Dave Brubeck's - Studio 54
TTITLE1=Jazz Tradicional - Movimiento Uno
TTITLE2=Peggy Lee - Fever
TTITLE3=Ella Fitzgerald - Mack The Knife
TTITLE4=Ben Wester - Late date
TTITLE5=Nina Simone - My Baby Just Cares For Me
TTITLE6=Dinah Washington - Mad About The Boy
TTITLE7=Ben Wester - Boogie Woogie
TTITLE8=Sam Brown - Stop
TTITLE9=Ben Wester - Soulville
EXTD=
EXTT0=
EXTT1=
EXTT2=
EXTT3=
EXTT4=
EXTT5=
EXTT6=
EXTT7=
EXTT8=
EXTT9=
PLAYORDER=
